<?xml version="1.0" encoding="UTF-8"?>
<svg width="19px" height="22px" viewBox="0 0 19 22" version="1.1" xmlns="http://www.w3.org/2000/svg" xmlns:xlink="http://www.w3.org/1999/xlink">
    <!-- Generator: Sketch 51.3 (57544) - http://www.bohemiancoding.com/sketch -->
    <title>Group 3</title>
    <desc>Created with Sketch.</desc>
    <defs>
        <polygon id="path-1" points="0 0 19 0 19 22 0 22"></polygon>
    </defs>
    <g id="Symbols" stroke="none" stroke-width="1" fill="none" fill-rule="evenodd">
        <g id="Phone">
            <g id="Group-3">
                <mask id="mask-2" fill="white">
                    <use xlink:href="#path-1"></use>
                </mask>
                <g id="Clip-2"></g>
                <path d="M18.5739345,17.4009951 L15.6396969,13.9954755 C15.0553503,13.3198414 14.0874511,13.3402137 13.4826643,14.0423596 L12.0042434,15.7575382 C11.9109403,15.6978167 11.8142706,15.6355835 11.712551,15.5694434 C10.7790393,14.9688798 9.50141229,14.1461746 8.15693414,12.5847649 C6.80836796,11.0200064 6.09897599,9.53478347 5.58003772,8.45114563 C5.52521014,8.33616783 5.47278727,8.22537612 5.42108582,8.12016585 L6.41303223,6.97038788 L6.90094963,6.40387106 C7.50669824,5.7006088 7.52329079,4.57762177 6.94038701,3.90003417 L4.00590895,0.494235519 C3.42300517,-0.182514867 2.454625,-0.161863515 1.84887639,0.541398742 L1.02189368,1.50643084 L1.04449803,1.53266364 C0.767233981,1.94317903 0.535419111,2.41676476 0.363241262,2.92746712 C0.204048892,3.4136111 0.105214959,3.87742931 0.0600062503,4.3423638 C-0.327634383,8.06993284 1.14020583,11.4765687 5.12362214,16.0996808 C10.6299467,22.4893208 15.0673739,22.0068047 15.2587895,21.9830836 C15.6757677,21.9253156 16.0751914,21.8097797 16.4813484,21.6267082 C16.9175643,21.429125 17.3254046,21.1603784 17.6791387,20.8391661 L17.6971741,20.857864 L18.5349781,19.9059483 C19.1395243,19.202686 19.1568383,18.079699 18.5739345,17.4009951" id="Fill-1" fill="#C72800" mask="url(#mask-2)"></path>
            </g>
        </g>
    </g>
</svg>