<?xml version="1.0" encoding="UTF-8"?>
<svg width="192px" height="175px" viewBox="0 0 192 175" version="1.1" xmlns="http://www.w3.org/2000/svg" xmlns:xlink="http://www.w3.org/1999/xlink">
    <!-- Generator: Sketch 51.3 (57544) - http://www.bohemiancoding.com/sketch -->
    <title>Group 37</title>
    <desc>Created with Sketch.</desc>
    <defs>
        <polygon id="path-1" points="0.3209 0.694495026 54.09315 0.694495026 54.09315 107.304404 0.3209 107.304404"></polygon>
        <polygon id="path-3" points="0 176 191 176 191 1 0 1"></polygon>
    </defs>
    <g id="Symbols" stroke="none" stroke-width="1" fill="none" fill-rule="evenodd">
        <g id="Logo" transform="translate(-80.000000, -138.000000)">
            <g id="Group-37" transform="translate(80.000000, 138.000000)">
                <path d="M7.81886129,140.345259 C9.45438558,140.345259 10.5130798,139.365969 10.5130798,138.079206 C10.5130798,136.3339 9.33304023,135.814929 6.87975379,135.16977 C2.96856452,134.128274 1.05869422,132.535816 1.05869422,129.105633 C1.05869422,125.032069 3.99912069,122 8.54517476,122 C10.9685645,122 13.0912288,122.645159 14.9676852,123.958581 L13.1211255,128.247199 C11.7581886,127.084847 10.3020444,126.503671 8.96900418,126.503671 C7.5146186,126.503671 6.57375247,127.2999 6.57375247,128.339618 C6.57375247,129.901862 8.06155199,130.237771 10.0312157,130.758519 C13.8773357,131.801793 16,133.241403 16,137.282977 C16,141.847075 12.7869862,145 7.69751594,145 C4.63398549,145 2.33194109,144.020709 0,141.786647 L2.66432183,137.346959 C4.39305342,139.335755 6.0901297,140.345259 7.81886129,140.345259" id="Fill-1" fill="#010202"></path>
                <polygon id="Fill-3" fill="#010202" points="26.6387039 127.964938 22 127.964938 22 123 37 123 37 127.964938 32.3308118 127.964938 32.3308118 144 26.6387039 144"></polygon>
                <polygon id="Fill-5" fill="#010202" points="47 123 60 123 60 127.612126 52.6378694 127.612126 52.6378694 131.252739 59.5831456 131.252739 59.5831456 135.748965 52.6378694 135.748965 52.6378694 139.30095 60 139.30095 60 144 47 144"></polygon>
                <path d="M76.5777199,132.457755 C79.063022,132.457755 80.3455906,131.989043 80.3455906,129.960799 C80.3455906,127.935963 79.0005424,127.523496 76.638464,127.523496 L75.472177,127.523496 L75.472177,132.457755 L76.5777199,132.457755 Z M70,144 L70,123 L76.1021803,123 L76.5187114,123 C79.2105434,123 81.3313808,123.028975 83.0079184,124.089116 C84.8927216,125.263453 86,127.438276 86,130.138057 C86,132.929876 84.9517301,135.014366 83.0391583,136.129048 C81.5743573,136.981252 79.9290596,137.069881 77.9245037,137.069881 L76.5187114,137.069881 L75.472177,137.069881 L75.472177,144 L70,144 Z" id="Fill-7" fill="#010202"></path>
                <polygon id="Fill-9" fill="#010202" points="93 123 98.9983933 123 98.9983933 131.165814 106.999821 131.165814 106.999821 123 113 123 113 144 106.999821 144 106.999821 135.454103 98.9983933 135.454103 98.9983933 144 93 144"></polygon>
                <polygon id="Fill-11" fill="#010202" points="124 123 137 123 137 127.612126 129.637122 127.612126 129.637122 131.252739 136.584923 131.252739 136.584923 135.748965 129.637122 135.748965 129.637122 139.30095 137 139.30095 137 144 124 144"></polygon>
                <path d="M147,123 L152.647073,123 L160.761146,133.80935 C160.970361,134.071829 161.660772,135.309228 162.713823,137.511322 C162.502864,135.866569 162.382565,134.484295 162.382565,133.369613 L162.382565,123 L168,123 L168,144 L162.382565,144 L154.268493,133.16338 C154.059278,132.897492 153.367123,131.694181 152.317559,129.492087 C152.528518,131.135135 152.647073,132.517409 152.647073,133.632092 L152.647073,144 L147,144 L147,123 Z" id="Fill-13" fill="#010202"></path>
                <path d="M183.818861,140.345259 C185.454386,140.345259 186.514838,139.365969 186.514838,138.079206 C186.514838,136.3339 185.33304,135.814929 182.879754,135.16977 C178.968565,134.128274 177.058694,132.535816 177.058694,129.105633 C177.058694,125.032069 179.999121,122 184.545175,122 C186.972082,122 189.091229,122.645159 190.969444,123.958581 L189.121126,128.247199 C187.759947,127.084847 186.302044,126.503671 184.969004,126.503671 C183.516377,126.503671 182.575511,127.2999 182.575511,128.339618 C182.575511,129.901862 184.059793,130.237771 186.031216,130.758519 C189.877336,131.801793 192,133.241403 192,137.282977 C192,141.847075 188.786986,145 183.695757,145 C180.633985,145 178.331941,144.020709 176,141.786647 L178.66608,137.346959 C180.394812,139.335755 182.091888,140.345259 183.818861,140.345259" id="Fill-15" fill="#010202"></path>
                <g id="Group-19" transform="translate(66.000000, 0.000000)">
                    <mask id="mask-2" fill="white">
                        <use xlink:href="#path-1"></use>
                    </mask>
                    <g id="Clip-18"></g>
                    <path d="M33.2139,33.5965046 L33.2139,27.8471407 C33.2139,21.9571196 31.3554,19.3725431 27.20615,19.3725431 C22.9169,19.3725431 21.20015,21.8147041 21.20015,27.8471407 C21.20015,45.8090677 54.09315,45.8090677 54.09315,79.2872444 C54.09315,100.697032 47.5149,107.304404 27.0644,107.304404 C8.04365,107.304404 0.3209,101.556799 0.3209,82.5909308 L0.3209,72.9664605 L21.20015,72.9664605 L21.20015,80.1487699 C21.20015,86.0405492 23.0604,88.6268838 27.20615,88.6268838 C31.49715,88.6268838 33.2139,86.1847228 33.2139,80.1487699 C33.06865,58.8849146 0.3209,61.0387282 0.3209,26.8431998 C0.3209,8.45226819 7.18615,0.693264275 27.20615,0.693264275 C44.9389,0.693264275 53.5209,7.30239542 53.5209,25.5491533 L53.5209,33.5965046 L33.2139,33.5965046 Z" id="Fill-17" fill="#C42D26" mask="url(#mask-2)"></path>
                </g>
                <path d="M7,154 L185,154" id="Stroke-20" stroke="#010202" stroke-width="0.372"></path>
                <path d="M35.701642,167.403057 C37.098318,167.403057 37.8209852,167.136949 37.8209852,165.977225 C37.8209852,164.819299 37.0640769,164.585556 35.7358831,164.585556 L35.0780937,164.585556 L35.0780937,167.403057 L35.701642,167.403057 Z M32,174 L32,162 L35.4331197,162 L35.6674009,162 C37.1812175,162 38.3760513,162.016182 39.3185823,162.61852 C40.3800561,163.29098 41,164.533413 41,166.079712 C41,167.669164 40.412495,168.863051 39.3366039,169.501349 C38.5130156,169.986815 37.5849019,170.038957 36.4585503,170.038957 L35.6674009,170.038957 L35.0780937,170.038957 L35.0780937,174 L32,174 Z" id="Fill-22" fill="#010202"></path>
                <path d="M49.4778912,167.669164 C50.7789116,167.669164 51.3979592,167.237639 51.3979592,166.178604 C51.3979592,164.919988 50.8112245,164.515433 49.5238095,164.515433 L48.9064626,164.515433 L48.9064626,167.669164 L49.4778912,167.669164 Z M46,162 L49.2397959,162 L49.4302721,162 C51.0017007,162 52.2057823,162.014384 53.1751701,162.805514 C54.0017007,163.474378 54.4472789,164.497453 54.4472789,165.743482 C54.4472789,167.604435 53.5561224,168.794726 51.9064626,169.16332 L55,174 L51.5085034,174 L48.9064626,169.298172 L48.9064626,174 L46,174 L46,162 Z" id="Fill-24" fill="#010202"></path>
                <mask id="mask-4" fill="white">
                    <use xlink:href="#path-3"></use>
                </mask>
                <g id="Clip-27"></g>
                <polygon id="Fill-26" fill="#010202" mask="url(#mask-4)" points="59 174 62 174 62 162 59 162"></polygon>
                <path d="M68,162 L70.9590742,162 L75.2080012,168.176206 C75.3192826,168.32724 75.6817903,169.032065 76.2314531,170.288882 C76.1201717,169.352113 76.0594727,168.559185 76.0594727,167.924483 L76.0594727,162 L79,162 L79,174 L76.0594727,174 L71.8088596,167.807612 C71.6975782,167.656578 71.3367566,166.967935 70.7854077,165.70932 C70.8966891,166.647887 70.9590742,167.435421 70.9590742,168.075517 L70.9590742,174 L68,174 L68,162 Z" id="Fill-28" fill="#010202" mask="url(#mask-4)"></path>
                <polygon id="Fill-29" fill="#010202" mask="url(#mask-4)" points="87.4743643 164.833683 85 164.833683 85 162 93 162 93 164.833683 90.5089621 164.833683 90.5089621 174 87.4743643 174"></polygon>
                <polygon id="Fill-30" fill="#010202" mask="url(#mask-4)" points="99 174 102 174 102 162 99 162"></polygon>
                <path d="M108,162 L110.958621,162 L115.206897,168.176206 C115.316475,168.32724 115.678927,169.032065 116.230192,170.288882 C116.120613,169.352113 116.056552,168.559185 116.056552,167.924483 L116.056552,162 L119,162 L119,174 L116.056552,174 L111.808276,167.807612 C111.698697,167.656578 111.336245,166.967935 110.784981,165.70932 C110.896245,166.647887 110.958621,167.435421 110.958621,168.075517 L110.958621,174 L108,174 L108,162 Z" id="Fill-31" fill="#010202" mask="url(#mask-4)"></path>
                <path d="M130.888336,167.099656 L136.982952,167.099656 C137,167.341924 137,167.565292 137,167.78866 C137,171.752577 134.771843,174 131.079273,174 C129.267083,174 127.850405,173.467354 126.703083,172.297251 C125.620543,171.19244 125,169.620275 125,167.998282 C125,164.5189 127.577639,162 131.079273,162 C133.290382,162 135.025856,162.902062 136.203864,164.646048 L133.515414,165.946735 C132.877824,165.063574 132.081688,164.630584 131.079273,164.630584 C129.267083,164.630584 128.085666,165.915808 128.085666,168.127148 C128.085666,170.324742 129.248331,171.640893 131.079273,171.640893 C132.686887,171.640893 133.817162,170.742268 133.975707,169.506873 L130.888336,169.506873 L130.888336,167.099656 Z" id="Fill-32" fill="#010202" mask="url(#mask-4)"></path>
                <polygon id="Fill-33" fill="#010202" mask="url(#mask-4)" points="142 172 140.415636 175 139 175 140.089989 172"></polygon>
                <polygon id="Fill-34" fill="#010202" mask="url(#mask-4)" points="146 166 147.541076 166 147.541076 172.545618 150 172.545618 150 174 146 174"></polygon>
                <polygon id="Fill-35" fill="#010202" mask="url(#mask-4)" points="153 166 154.541076 166 154.541076 172.545618 157 172.545618 157 174 153 174"></polygon>
                <path d="M164.653796,167.306227 C162.905175,167.306227 161.79275,168.362508 161.79275,169.990584 C161.79275,171.569013 162.787497,172.604751 164.480956,172.604751 C165.420541,172.604751 166.233255,172.315429 166.931967,171.717954 L166.919096,173.390541 C166.176254,173.796276 165.36538,174 164.462569,174 C161.816654,174 160,172.282902 160,169.990584 C160,167.742778 161.772524,166 164.493827,166 C165.525348,166 166.336223,166.232827 167,166.528996 L166.943,168.160496 C166.336223,167.658892 165.626478,167.306227 164.653796,167.306227" id="Fill-36" fill="#010202" mask="url(#mask-4)"></path>
            </g>
        </g>
    </g>
</svg>